$MeshFormat
4.1 0 8
$EndMeshFormat
$PhysicalNames
4
2 2 "inlet"
2 3 "outlet"
2 4 "walls"
3 1 "fluid"
$EndPhysicalNames
$Entities
2 3 3 1
1 0.001 -2.449212707644754e-19 0.018 0
2 0.001 -2.449212707644754e-19 0 0
1 -0.001 -0.0009980267284282716 0.018 0.001 0.0009980267284282716 0.018 0 2 1 -1
2 0.001 -2.449212707644754e-19 0 0.001 -2.449212707644754e-19 0.018 0 2 2 -1
3 -0.001 -0.0009980267284282716 0 0.001 0.0009980267284282716 0 0 2 2 -2
1 -0.001 -0.0009980267284282716 0 0.001 0.0009980267284282716 0.018 1 4 4 -1 -2 3 2
2 -0.0009987569212189223 -0.0009996891820008163 0.018 0.001 0.0009996891820008163 0.018 1 3 1 1
3 -0.0009987569212189223 -0.0009996891820008163 0 0.001 0.0009996891820008163 0 1 2 1 3
1 -0.001 -0.0009996891820008163 0 0.001 0.0009996891820008163 0.018 1 1 3 1 2 -3
$EndEntities
$Nodes
9 246 1 246
0 1 0 1
1
0.001 -2.449212707644754e-19 0.018
0 2 0 1
2
0.001 -2.449212707644754e-19 0
1 1 0 7
3
4
5
6
7
8
9
0.0007071067811865483 0.0007071067811865469 0.018
1.393497947241307e-18 0.001 0.018
-0.0007071067811865449 0.0007071067811865501 0.018
-0.001 6.783798783133177e-18 0.018
-0.0007071067811865533 -0.0007071067811865418 0.018
-6.400939890974233e-18 -0.001 0.018
0.0007071067811865455 -0.0007071067811865496 0.018
1 2 0 20
10
11
12
13
14
15
16
17
18
19
20
21
22
23
24
25
26
27
28
29
0.001 -2.449212707644754e-19 0.0008571428571428584
0.001 -2.449212707644754e-19 0.001714285714285717
0.001 -2.449212707644754e-19 0.002571428571428574
0.001 -2.449212707644754e-19 0.003428571428571432
0.001 -2.449212707644754e-19 0.00428571428571429
0.001 -2.449212707644754e-19 0.00514285714285715
0.001 -2.449212707644754e-19 0.00600000000000001
0.001 -2.449212707644754e-19 0.00685714285714287
0.001 -2.449212707644754e-19 0.007714285714285726
0.001 -2.449212707644754e-19 0.008571428571428582
0.001 -2.449212707644754e-19 0.009428571428571435
0.001 -2.449212707644754e-19 0.01028571428571429
0.001 -2.449212707644754e-19 0.01114285714285715
0.001 -2.449212707644754e-19 0.012
0.001 -2.449212707644754e-19 0.01285714285714286
0.001 -2.449212707644754e-19 0.01371428571428571
0.001 -2.449212707644754e-19 0.01457142857142857
0.001 -2.449212707644754e-19 0.01542857142857143
0.001 -2.449212707644754e-19 0.01628571428571429
0.001 -2.449212707644754e-19 0.01714285714285715
1 3 0 7
30
31
32
33
34
35
36
0.0007071067811865483 0.0007071067811865469 0
1.393497947241307e-18 0.001 0
-0.0007071067811865449 0.0007071067811865501 0
-0.001 6.783798783133177e-18 0
-0.0007071067811865533 -0.0007071067811865418 0
-6.400939890974233e-18 -0.001 0
0.0007071067811865455 -0.0007071067811865496 0
2 1 0 175
37
38
39
40
41
42
43
44
45
46
47
48
49
50
51
52
53
54
55
56
57
58
59
60
61
62
63
64
65
66
67
68
69
70
71
72
73
74
75
76
77
78
79
80
81
82
83
84
85
86
87
88
89
90
91
92
93
94
95
96
97
98
99
100
101
102
103
104
105
106
107
108
109
110
111
112
113
114
115
116
117
118
119
120
121
122
123
124
125
126
127
128
129
130
131
132
133
134
135
136
137
138
139
140
141
142
143
144
145
146
147
148
149
150
151
152
153
154
155
156
157
158
159
160
161
162
163
164
165
166
167
168
169
170
171
172
173
174
175
176
177
178
179
180
181
182
183
184
185
186
187
188
189
190
191
192
193
194
195
196
197
198
199
200
201
202
203
204
205
206
207
208
209
210
211
0.0007244897959183356 -0.0006892855254611172 0.009857142857142863
0.0007244897959183326 -0.0006892855254611205 0.00557142857142858
0.0007244897959169697 -0.0006892855254625529 0.01414285714285714
0.0007246064428342898 -0.0006891629001934429 0.003119665341155652
-0.0009238795325112898 -0.0003826834323650827 0.01734155827695272
0.0007244897959185239 0.0006892855254609192 0.015
0.0007244897959176451 -0.0006892855254618431 0.01585714285714286
0.0007244897959165994 -0.0006892855254629421 0.01242857142857143
0.0007244897959176463 -0.0006892855254618418 0.008142857142857155
0.0007244897959190326 0.0006892855254603846 0.01328571428571428
0.0007244897959179865 0.0006892855254614843 0.01157142857142857
0.0007244897959182857 0.0006892855254611697 0.009857142857142863
0.0007244897959187338 0.0006892855254606986 0.008142857142857155
0.0007244897959194794 0.0006892855254599149 0.00642857142857144
0.0007244897959187312 0.0006892855254607014 0.00471428571428572
0.0007244897959194794 0.0006892855254599149 0.003000000000000003
-0.000931141633108915 -0.0003646577286871384 0.0006585657672065087
-0.0003826834323650875 0.0009238795325112877 0.01734155827694332
-0.0003826834323650875 0.0009238795325112877 0.0006584417230566871
0.0007244897959183332 -0.0006892855254611198 0.001285714285714288
0.0003826834323650859 -0.0009238795325112884 0.0173415582769527
0.0007244897959184793 0.0006892855254609662 0.01671428571428572
0.0007244897959184773 0.0006892855254609683 0.001285714285714288
0.0007337680090184167 -0.0006794001096122584 0.01498597436395825
0.0001317206475355618 -0.000991286876243609 0.01540173430381074
7.970330788664658e-05 -0.0009968186308009731 0.01612672075485216
-0.0005507906364125147 -0.0008346434417404219 0.01566476884128946
-0.0005070623655250611 -0.0008619093673166159 0.01493530061147472
-0.0009503116994090329 -0.0003112999742472141 0.01530869708618741
-0.0009344356368874234 -0.0003561320548824488 0.01453563367543797
-0.0009638210655594348 -0.0002665500958241727 0.0161119262727871
-0.0009184985137145678 0.0003954244305858329 0.01567820591623032
-0.0009094637138222487 0.0004157833008198416 0.01643535640561065
-0.0004233755495262962 0.0009059542726116516 0.01603560653719182
-0.0004628426069230214 0.0008864404781014355 0.01523186446501217
-0.0004591249379373853 -0.0008883717078813306 0.0141432369538053
-0.0009153319569403442 -0.0004027001472606636 0.01374249620095838
-0.0009491523857041597 0.0003148170082954576 0.0140902754983758
-0.0009640254301124984 0.0002658100263278501 0.01328404640497854
-0.0004101403440831524 -0.0009120224219586674 0.0133778790220228
-0.0005453865060177441 0.0008381846807558327 0.01359749180502215
-0.0005712221079567311 0.0008207955308001309 0.0128284678567486
-0.0009781535126362523 0.0002078838755588353 0.01246612967021456
-0.0006214576591489328 0.0007834477505776176 0.01201967457570385
-0.0009887579832956687 0.0001495247486842303 0.01164577649805182
-0.0008557561048317403 -0.0005173794439704842 0.01210382106886381
-0.0008242030046636674 -0.0005662944526510768 0.01128960770386694
-0.0006377202771764383 0.0007702680365158655 0.01124101767954965
-0.000282006361511591 -0.0009594125348706853 0.01174461681779374
-0.000222593104993825 -0.000974911436802958 0.01093934988174502
-0.0007873481915590384 -0.0006165085767843882 0.01048335024455588
8.581536554385847e-05 0.0009963110573694212 0.01251941235791496
0.0007355739686302207 -0.0006774444159291499 0.01325954430016667
0.000733499011302005 -0.000679690518117607 0.008978776395622234
0.0001091634574366553 -0.0009940238123709491 0.00857796467713086
8.26140224870107e-05 -0.0009965816189798585 0.007766421122824007
-0.0005796606509029525 -0.0008148579813653207 0.008190461088970152
-0.0006021141901458293 -0.0007984099836706905 0.007380207372441765
6.020093860900402e-05 -0.0009981862787028254 0.00695439923476813
-0.0006220962566906901 -0.0007829407687759215 0.006565266490707561
-0.000557983889709693 -0.0008298517812383373 0.009000002709083297
-0.0009822809931566911 -0.0001874141149516344 0.006994178787112239
-0.0009867834438318547 -0.0001620445462807829 0.006174337429339766
-0.0009700063403917206 -0.0002430796157637687 0.008616703196181526
-0.0009632200705112825 -0.000268713780376519 0.009432393733124799
-0.0008943061925160878 0.000447455510668243 0.009052548355748992
-0.0008809402958536374 0.0004732274243334868 0.008164862916496892
-0.0009044721747700923 0.0004265326307173458 0.00986851475654878
-0.0008500675806680911 0.0005266736259744723 0.006605224201130248
-0.0008363575695691731 0.0005481842900196483 0.005723186800291421
-0.0009899425896078135 -0.0001414696761874294 0.005345892796196922
-0.0008231118821033608 0.0005678792385184221 0.004915647185976944
-0.0009927397347578482 -0.000120282247372242 0.004515964132513455
-0.0008101964776446978 0.000586158398056468 0.00410425849097476
-0.0009950964264315366 -9.890956527649697e-05 0.003684871889161007
-0.0006656940441820341 -0.0007462247915612079 0.004083115491477138
-0.0007973195697183233 0.0006035573740285075 0.003287788396491203
-0.0009971601162675125 -7.53107065785524e-05 0.002856441266571605
-0.0007864354945216816 0.0006176724155702908 0.002464352845958201
-0.0009988959432907542 -4.69775954820398e-05 0.002040519911662304
-0.0007137423516787668 -0.0007004083490507974 0.002408964480515017
-0.0007769614271219845 0.000629548203686238 0.001654663939355222
-0.0001829677720177936 0.0009831189116291299 0.002071787013250551
-0.0007327473800323026 -0.0006805007546327899 0.001621093627849326
-0.0001952753149513832 0.0009807484648831414 0.003720695707755532
-0.0001009628037602155 -0.00099489020110607 0.002001625024832384
-0.0002382507745959389 0.0009712036698882655 0.005381962203887022
-0.0003728693588260324 0.0009278838511627754 0.008665680238365673
0.0004410516184967255 -0.000897481737876275 0.01138686496896213
3.695910149546973e-05 -0.0009993167790128652 0.006140361387366373
0.0007243774329503846 -0.0006894036079338512 0.002252329331795455
-0.0003331668796430163 -0.0009428678753191965 0.01254951630542484
0.0007325228932274054 -0.0006807423968710567 0.004733190042988574
9.110030244723927e-05 -0.0009958417218082509 0.005143032966374216
0.0007208269294325193 -0.0006931150970833675 0.003885891834229575
8.913775264142137e-05 -0.0009960193075709109 0.003572085285241396
-0.0001608886574233091 -0.0009869725628975333 0.01013050749189076
0.0007271971941009829 0.0006864286131067509 0.0158508075207716
-0.000892544378680721 -0.0004509595681271723 0.01293405592554238
-0.0006912408655419868 -0.0007226244292886624 0.003234875352656991
0.0007290172056605567 0.0006844953716796583 0.002132242503277916
0.0006664614762667829 -0.0007455394695469184 0.01663010399489102
0.0007271971941009824 0.0006864286131067513 0.0141491924792284
0.0007261201982752453 0.0006875677840451212 0.01071047489846451
5.946489234948057e-05 0.0009982303975425036 0.01010083831964825
5.703528544942063e-05 0.000998372163180496 0.009440214456069403
0.0007192002928773348 0.000694802805639957 0.009012408218671837
0.0007261201982752528 0.0006875677840451134 0.007289525101535526
5.814891535512991e-05 0.0009983079202545784 0.007714292648152173
5.778805508861989e-05 0.0009983288740135058 0.006860930657942007
-0.0006492649575985394 -0.0007605623017442864 0.00490882668676073
-0.0006411302446283609 -0.0007674320878245697 0.005659680037700061
0.0007261201982752508 0.0006875677840451153 0.005567617755607351
0.0007248231599344422 0.0006889349655973706 0.003853433333523185
0.000133700755445666 -0.0009910217495056595 0.009372762072433706
-0.000188789904161467 0.0009820175009065287 0.00285134149407432
-0.0009963083582104411 8.584669684976422e-05 0.01083485110462894
9.606233546132799e-05 -0.0009953753200204008 0.004366356784156149
-0.0002229013914618013 0.0009748409971294769 0.004624598175431755
0.0007022446937618201 -0.000711935664286716 0.007342433994960489
0.0006938154649704209 -0.0007201528313961412 0.006528571095901917
8.588186254006307e-05 0.0009963053275410354 0.01466918479038242
-0.0009744203060287104 -0.0002247333246292466 0.007812689997256195
-0.0009369901379663546 0.0003493558091026852 0.01488869487148206
0.0004878306491909975 -0.000872938289748989 0.0105935187330571
-0.0008697203097684829 0.0004935449146493297 0.007410172977528146
0.0003638551504563604 0.0009314555434836272 0.01734062435510499
9.985311137030375e-06 0.0009999501455380147 0.0166960618808066
0.0003673703431113915 0.0009300747448470035 0.0006438242559397454
1.059561968019557e-05 0.0009999438648462186 0.001316658034796328
-0.0009307686361689735 0.0003656087333805757 0.0008961977789842325
0.0003720700960383833 -0.0009282046345682553 0.000619007528410021
-0.0001366610181415901 -0.0009906178708869045 0.001219819489050488
-0.0003938291918353203 -0.0009191836419662496 0.01739089452631088
-0.0006791176175641661 -0.0007340294691045934 0.01658577577238767
-0.0002909412087593071 0.0009567409330877787 0.006161513524158181
-0.0009232690637219445 0.000384153922242119 0.01718040400289862
0.000164447016523276 -0.0009863859177606873 0.01457014337411669
7.782719586830496e-05 0.0009969668638341379 0.01093125293609373
0.000123421681023394 -0.0009923543160854189 0.002705061644661087
-0.0003826834323650961 -0.0009238795325112842 0.0005684051755980423
0.0002266619486464313 -0.000973973490930735 0.01369098852242901
-0.0006252201304185902 0.0007804484534672108 0.01045178903303608
0.0007386931465087908 0.0006740418646500691 0.01245656944313538
0.0001774787760349886 -0.0009841246283155006 0.0129314024201463
6.775555618342152e-05 0.0009977019517903507 0.01319865065710349
-0.0009938619819483017 -0.0001106271252351511 0.001367244756096454
9.975309880731823e-07 -0.0009999995024658401 0.01683298972265424
-0.000989101849190296 -0.000147232917271705 0.01670862610782271
0.000146874734500163 0.0009891551002575412 0.01560250796703354
0.0001634296167724935 0.0009865549961160787 0.01388868768401029
-0.0005742479197220946 0.0008186814561811248 0.01436059526776005
-0.0006104875314886911 -0.0007920258669367083 0.009671906515125847
0.0002049097108262352 -0.0009787808796707814 0.01222878123547658
-0.0004462676993968895 0.0008948995141774341 0.009830807813975447
-0.0009756064995204709 -0.0002195266682966181 0.009943565319688928
0.0008192505353508223 -0.000573435750827755 0.01179941539794549
-3.385837288626331e-05 0.0009994266409224315 0.01170473102911929
0.0008108518095720172 -0.0005852515210691768 0.0173868384010162
0.0002459887933625892 0.0009692726724405354 0.008591732326172531
0.0008121340407502093 0.000583470907462178 0.01744534804969686
0.000819259335134438 0.0005734231786343125 0.0006289312477098437
0.0008192627117290601 -0.0005734183544065773 0.0005960348748700417
-0.0005617962522255862 0.0008272756318091847 0.0167716339273612
-0.0006711193957216775 -0.0007413492811665568 0.001035564692998509
0.0002936928593866831 0.0009558998401220046 0.00248413947999794
-0.000427240850573576 0.0009041378521006448 0.007419375033849578
0.0003191259674262074 0.0009477123070395821 0.005996808087385572
-0.0004628842998672554 0.000886418707460758 0.008043289745908115
0.0003357285616342949 0.0009419587745241123 0.005169958976097548
0.0003354558078122516 0.0009420559436705602 0.004286364284805356
0.0008222689715131435 -0.0005690990585888516 0.01102107028860136
-0.0005030557102947829 0.0008642539860132619 0.009235178577288786
0.0002678776181397316 0.0009634529473200984 0.003288777408578811
0.0002612488865290716 0.0009652714743984308 0.01611768304505516
2 2 0 4
212
213
214
215
-0.0002687658173968398 -0.0001113264466680587 0.018
0.0003632776942023556 0.0001504745478462415 0.018
-0.0001820395192602633 0.0004510798725986305 0.018
0.0001902402582583805 -0.0004476830152841268 0.018
2 3 0 4
216
217
218
219
-0.0002687658173968398 -0.0001113264466680587 0
0.0003632776942023556 0.0001504745478462415 0
-0.0001820395192602633 0.0004510798725986305 0
0.0001902402582583805 -0.0004476830152841268 0
3 1 0 27
220
221
222
223
224
225
226
227
228
229
230
231
232
233
234
235
236
237
238
239
240
241
242
243
244
245
246
-2.068574242354686e-05 9.759514171740073e-05 0.007605556827412949
-6.522907770286482e-05 5.357343652958355e-05 0.01610109760339048
-1.643642927149511e-05 -1.535423348896471e-05 0.01495767174440877
2.458546372328777e-05 8.413369778138762e-05 0.003279716446556243
-2.552460980458911e-05 5.083988597328091e-05 0.002076273402374625
4.301135689221629e-05 -3.062822531448917e-06 0.006467505214885302
-2.047444745474863e-05 -3.381184882129897e-05 0.0138183754565125
9.203149452488806e-06 4.186051839320764e-05 0.01714381455078243
4.468942344606763e-06 8.299664936944698e-05 0.005425577614436757
-0.0001092408350688671 -3.956349120424174e-05 0.0008060444661501487
3.097089239675055e-05 -5.378782455012995e-05 0.0109638195843942
-1.776109233857775e-05 3.178896203568842e-05 0.004433385540458281
-1.567177734503195e-06 -3.979972780438402e-05 0.01190899157851007
-5.955039714304794e-05 3.337435246060913e-05 0.008686339947901739
5.210516393251251e-06 -5.066357936429539e-06 0.0128171958518837
-7.408706099668959e-05 2.859989238209566e-05 0.009807732405149901
0.0005090228183009789 0.0002781031700773674 0.0005227987968502932
-0.0002237102835546283 -0.0005066155050735714 0.01763883139738488
-0.000439265121892802 0.0004777276301272088 0.0004037407832735607
0.0005974310322443601 0.0001155660205614802 0.01758513389529113
-0.0003649963743319089 0.0005313028002044926 0.01758601261559061
0.0004891077952970856 -0.000285915028826145 0.0004837818154269152
0.0003354550120003858 -0.0003697289021328191 0.01763501966380386
-0.0005784368877077212 3.795301031751515e-05 0.01761026507092164
0.0001217221964173573 0.0005675020045996491 0.0003604338563708907
5.789120959275772e-05 -0.0006521116465858894 0.0003555803696536431
0.0002117769847623049 0.000566971919991569 0.01762821284139957
$EndNodes
$Elements
4 1066 1 1066
2 1 2 406
1 118 166 55
2 55 167 118
3 56 127 122
4 122 169 56
5 137 166 119
6 33 167 32
7 59 166 137
8 62 171 63
9 126 148 130
10 126 130 38
11 117 176 136
12 88 182 180
13 21 161 37
14 180 182 46
15 132 154 112
16 32 167 55
17 112 136 132
18 158 186 42
19 38 157 126
20 21 208 161
21 53 167 33
22 16 157 38
23 88 180 47
24 146 172 105
25 153 179 104
26 47 194 88
27 71 186 158
28 133 151 37
29 105 203 146
30 62 184 171
31 136 176 132
32 63 171 67
33 29 138 28
34 37 161 133
35 104 192 153
36 112 154 147
37 130 148 147
38 43 60 27
39 43 61 60
40 39 89 25
41 147 154 130
42 141 179 175
43 175 179 84
44 37 90 20
45 13 131 40
46 119 166 118
47 72 178 174
48 28 138 43
49 131 132 40
50 17 157 16
51 1 197 3
52 2 199 36
53 77 188 187
54 26 60 39
55 37 151 90
56 24 89 44
57 127 176 122
58 131 154 132
59 29 195 138
60 11 127 56
61 145 205 196
62 28 43 27
63 18 156 17
64 122 176 117
65 26 39 25
66 19 90 45
67 76 135 128
68 24 44 23
69 207 210 121
70 128 135 82
71 56 169 168
72 89 181 44
73 21 37 20
74 156 157 17
75 61 174 60
76 28 134 58
77 150 210 207
78 19 45 18
79 64 174 61
80 90 91 45
81 27 60 26
82 16 38 15
83 40 127 12
84 174 178 39
85 43 62 61
86 25 89 24
87 13 40 12
88 14 131 13
89 129 131 14
90 111 136 112
91 119 202 137
92 49 143 19
93 38 129 15
94 20 90 19
95 12 137 52
96 82 135 79
97 46 139 25
98 45 156 18
99 28 58 29
100 115 116 114
101 10 59 11
102 38 130 129
103 11 56 10
104 42 134 27
105 147 148 107
106 39 178 89
107 139 158 42
108 59 137 11
109 50 146 144
110 187 188 158
111 115 118 116
112 144 146 145
113 22 140 47
114 40 176 127
115 19 143 20
116 12 127 11
117 113 115 114
118 113 114 111
119 116 120 117
120 50 144 17
121 26 139 42
122 16 149 50
123 52 150 13
124 83 85 82
125 26 42 27
126 27 134 28
127 48 141 140
128 85 128 82
129 116 117 114
130 60 174 39
131 81 82 79
132 144 145 49
133 114 136 111
134 48 142 141
135 129 154 131
136 24 46 25
137 111 112 109
138 83 86 85
139 81 83 82
140 48 140 21
141 22 47 23
142 20 48 21
143 109 147 107
144 145 196 49
145 15 129 14
146 18 49 19
147 18 144 49
148 25 139 26
149 16 50 17
150 11 137 12
151 14 51 15
152 12 52 13
153 51 149 15
154 14 150 51
155 112 147 109
156 141 175 140
157 21 140 22
158 20 143 48
159 110 111 109
160 17 144 18
161 43 138 62
162 62 63 61
163 91 92 45
164 15 149 16
165 13 150 14
166 87 133 86
167 67 69 68
168 110 113 111
169 108 109 107
170 80 81 79
171 96 126 95
172 106 107 99
173 69 185 173
174 29 197 1
175 78 79 75
176 10 199 2
177 73 76 72
178 94 95 92
179 7 170 8
180 48 143 142
181 63 67 65
182 6 41 7
183 8 57 9
184 41 170 7
185 117 136 114
186 83 87 86
187 5 173 6
188 66 72 64
189 108 110 109
190 106 108 107
191 107 148 99
192 80 84 81
193 94 96 95
194 96 148 126
195 79 135 75
196 91 97 93
197 8 170 57
198 120 122 117
199 78 80 79
200 97 101 100
201 73 135 76
202 84 153 81
203 101 104 102
204 133 161 86
205 81 153 83
206 115 119 118
207 76 178 72
208 91 151 97
209 105 106 99
210 83 153 87
211 98 99 96
212 110 121 113
213 66 73 72
214 91 93 92
215 113 152 115
216 34 53 33
217 106 123 108
218 63 64 61
219 93 94 92
220 94 98 96
221 102 103 100
222 86 125 85
223 97 100 93
224 67 68 65
225 98 105 99
226 101 102 100
227 54 173 5
228 173 200 69
229 99 148 96
230 140 175 47
231 102 124 103
232 74 75 73
233 77 78 75
234 78 88 80
235 90 151 91
236 4 54 5
237 130 154 129
238 110 155 121
239 126 157 95
240 66 74 73
241 63 65 64
242 94 159 98
243 75 135 73
244 69 70 68
245 65 66 64
246 196 205 124
247 32 55 31
248 125 190 85
249 121 152 113
250 6 173 41
251 74 77 75
252 115 152 119
253 159 162 98
254 108 155 110
255 41 171 170
256 103 162 159
257 84 179 153
258 125 193 190
259 24 180 46
260 70 71 68
261 47 180 23
262 103 159 100
263 123 155 108
264 93 159 94
265 42 186 134
266 66 160 74
267 92 156 45
268 95 156 92
269 65 160 66
270 22 208 21
271 68 160 65
272 100 159 93
273 181 190 44
274 167 183 118
275 72 174 64
276 71 160 68
277 86 161 125
278 120 169 122
279 95 157 156
280 98 162 105
281 3 163 4
282 31 165 30
283 36 168 35
284 105 172 106
285 46 187 139
286 4 163 54
287 118 183 116
288 55 165 31
289 138 195 57
290 163 164 54
291 87 189 133
292 50 204 146
293 78 182 88
294 87 192 189
295 55 166 165
296 133 189 151
297 23 180 24
298 142 196 124
299 34 177 53
300 74 188 77
301 162 203 105
302 23 193 22
303 151 189 97
304 106 172 123
305 173 185 41
306 158 188 71
307 1 195 29
308 58 164 163
309 171 184 170
310 165 166 59
311 132 176 40
312 53 183 167
313 2 198 10
314 175 194 47
315 54 200 173
316 146 204 172
317 168 177 35
318 80 194 84
319 169 177 168
320 104 209 102
321 206 207 155
322 9 195 1
323 77 182 78
324 57 184 138
325 30 198 2
326 71 188 160
327 143 196 142
328 138 184 62
329 153 192 87
330 193 208 22
331 182 187 46
332 128 181 76
333 84 194 175
334 103 205 162
335 35 177 34
336 190 193 44
337 53 201 183
338 70 186 71
339 160 188 74
340 134 211 58
341 124 209 142
342 123 206 155
343 204 206 123
344 116 183 120
345 162 205 203
346 69 200 70
347 10 198 59
348 52 210 150
349 137 202 52
350 191 209 104
351 51 207 206
352 44 193 23
353 139 187 158
354 172 204 123
355 85 190 128
356 67 185 69
357 155 207 121
358 49 196 143
359 97 189 101
360 70 200 164
361 189 192 101
362 170 184 57
363 41 185 171
364 178 181 89
365 142 191 141
366 128 190 181
367 171 185 67
368 58 197 29
369 56 199 10
370 146 203 145
371 3 197 163
372 36 199 168
373 77 187 182
374 149 204 50
375 164 211 70
376 183 201 120
377 101 192 104
378 59 198 165
379 57 195 9
380 51 206 149
381 150 207 51
382 58 211 164
383 76 181 178
384 88 194 80
385 152 202 119
386 120 201 169
387 124 205 103
388 102 209 124
389 121 210 152
390 202 210 52
391 164 200 54
392 177 201 53
393 165 198 30
394 149 206 204
395 161 208 125
396 70 211 186
397 152 210 202
398 125 208 193
399 141 191 179
400 179 191 104
401 163 197 58
402 168 199 56
403 203 205 145
404 169 201 177
405 186 211 134
406 142 209 191
2 2 2 14
407 7 215 212
408 1 215 9
409 4 214 3
410 8 215 7
411 6 214 5
412 212 214 6
413 213 215 1
414 3 214 213
415 7 212 6
416 3 213 1
417 9 215 8
418 5 214 4
419 212 215 213
420 213 214 212
2 3 2 14
421 34 216 219
422 2 36 219
423 31 30 218
424 35 34 219
425 33 32 218
426 216 33 218
427 217 2 219
428 30 217 218
429 34 33 216
430 30 2 217
431 36 35 219
432 32 31 218
433 216 217 219
434 217 216 218
3 1 4 632
435 220 103 205 162
436 65 221 222 68
437 223 202 224 152
438 225 16 50 17
439 9 242 8 215
440 226 46 182 187
441 221 71 186 222
442 227 185 221 171
443 225 228 126 148
444 229 224 166 118
445 246 213 227 239
446 230 140 22 21
447 226 25 46 139
448 230 86 125 85
449 234 77 75 226
450 220 146 225 105
451 230 179 175 141
452 231 154 147 112
453 232 190 128 85
454 221 211 58 134
455 233 159 100 103
456 230 87 133 86
457 224 116 117 114
458 31 238 218 244
459 226 75 234 135
460 223 114 111 113
461 233 91 93 92
462 235 21 161 37
463 225 228 16 38
464 232 82 234 79
465 239 195 1 242
466 226 178 72 76
467 235 20 143 48
468 229 183 224 118
469 220 94 93 159
470 220 45 18 19
471 230 179 235 153
472 229 183 53 201
473 223 40 131 132
474 229 218 238 244
475 227 41 185 171
476 227 200 221 69
477 224 11 137 12
478 31 32 218 238
479 231 131 154 132
480 234 182 46 180
481 233 97 91 151
482 235 102 233 101
483 226 73 75 135
484 220 17 225 144
485 222 134 42 186
486 233 20 90 19
487 234 75 79 135
488 232 80 81 79
489 56 241 168 229
490 229 56 169 168
491 233 209 142 124
492 223 224 114 115
493 228 155 206 231
494 223 110 113 111
495 232 22 230 47
496 227 69 221 185
497 227 173 200 69
498 226 72 73 76
499 206 207 231 155
500 5 243 240 214
501 225 95 157 156
502 233 100 102 103
503 226 39 174 178
504 229 55 166 165
505 223 13 40 12
506 220 105 225 98
507 233 205 220 103
508 233 90 45 19
509 224 152 119 115
510 221 62 43 138
511 229 217 219 216
512 222 186 158 71
513 230 235 179 141
514 230 161 125 86
515 226 66 74 73
516 234 80 232 79
517 220 45 156 18
518 232 85 128 82
519 228 51 231 206
520 224 119 152 202
521 235 209 233 102
522 224 116 114 115
523 235 233 20 90
524 231 108 155 110
525 229 118 167 183
526 227 173 69 185
527 223 110 121 113
528 25 234 226 46
529 235 151 233 90
530 206 231 207 51
531 227 221 184 171
532 234 88 78 182
533 243 214 227 240
534 5 243 214 6
535 223 111 136 112
536 233 92 220 45
537 232 81 230 83
538 223 231 110 111
539 229 201 120 183
540 232 82 81 83
541 230 83 81 153
542 227 214 212 213
543 226 188 158 187
544 188 222 158 71
545 227 184 170 171
546 232 84 230 81
547 232 84 81 80
548 225 99 228 148
549 221 211 70 164
550 229 219 241 245
551 225 96 99 148
552 220 162 205 203
553 198 10 236 2
554 226 139 46 187
555 227 170 41 171
556 230 86 85 83
557 234 89 44 24
558 88 47 232 194
559 228 231 51 15
560 41 237 243 7
561 220 17 144 18
562 233 220 159 103
563 233 142 196 124
564 232 234 44 23
565 232 125 190 85
566 220 145 146 203
567 220 105 162 203
568 233 220 19 45
569 227 184 221 138
570 235 20 233 143
571 226 72 66 73
572 233 102 124 103
573 220 93 94 92
574 226 74 66 222
575 230 22 193 208
576 233 159 93 100
577 227 57 184 138
578 246 54 227 240
579 230 140 175 47
580 232 22 47 23
581 226 158 139 187
582 221 43 62 61
583 220 105 98 162
584 231 147 109 112
585 220 98 225 94
586 227 173 185 41
587 224 137 11 59
588 224 116 118 183
589 97 235 151 233
590 223 176 127 40
591 223 111 114 136
592 231 109 108 110
593 229 33 53 167
594 231 121 155 207
595 231 112 109 111
596 223 113 121 152
597 229 53 33 34
598 233 143 20 19
599 229 244 55 165
600 234 44 89 181
601 235 143 233 142
602 222 72 226 174
603 196 220 145 49
604 229 201 169 120
605 232 190 125 193
606 230 22 208 21
607 239 195 242 227
608 223 117 136 114
609 228 129 231 15
610 224 127 176 122
611 229 245 168 177
612 235 133 87 189
613 226 188 222 158
614 56 241 229 10
615 25 234 46 24
616 223 13 131 40
617 234 77 226 182
618 220 98 94 159
619 230 133 161 86
620 232 230 194 47
621 235 48 143 142
622 220 95 156 92
623 231 154 130 147
624 233 93 220 92
625 224 120 117 116
626 222 160 66 65
627 229 238 167 55
628 223 114 113 115
629 188 222 71 160
630 233 142 143 196
631 232 47 180 23
632 149 225 204 228
633 235 140 48 141
634 233 91 92 45
635 220 144 225 146
636 233 101 102 100
637 55 118 229 166
638 223 176 224 127
639 227 138 221 28
640 230 208 125 161
641 232 22 23 193
642 231 154 112 132
643 235 153 192 87
644 230 83 87 86
645 227 138 28 29
646 226 181 89 178
647 234 80 79 78
648 227 184 57 170
649 229 11 56 10
650 220 94 95 92
651 33 229 216 218
652 228 126 130 38
653 220 162 98 159
654 221 43 28 138
655 220 146 105 203
656 228 123 108 106
657 225 17 50 144
658 225 50 204 146
659 228 130 126 148
660 225 106 228 99
661 224 127 11 12
662 229 120 224 183
663 236 241 229 217
664 223 231 14 150
665 220 145 144 146
666 233 90 91 45
667 223 112 136 132
668 210 202 52 223
669 223 132 176 40
670 225 204 228 172
671 223 113 152 115
672 228 106 108 107
673 149 225 228 16
674 223 150 13 52
675 223 127 12 40
676 55 118 167 229
677 59 236 10 229
678 224 137 52 12
679 224 119 166 118
680 226 158 222 139
681 230 22 140 47
682 41 237 7 170
683 221 62 63 61
684 232 190 193 44
685 235 101 192 104
686 222 186 42 158
687 222 63 64 61
688 226 74 188 77
689 241 219 36 245
690 231 108 109 107
691 228 155 231 108
692 41 237 170 227
693 225 99 96 98
694 226 75 74 77
695 228 155 108 123
696 231 14 51 15
697 235 209 104 191
698 223 127 224 12
699 227 57 237 170
700 219 36 245 35
701 186 221 134 211
702 234 180 46 24
703 227 138 29 195
704 228 130 148 147
705 237 170 57 8
706 232 81 82 79
707 9 242 215 1
708 59 236 229 165
709 234 77 182 78
710 233 49 220 196
711 234 76 135 128
712 223 152 224 115
713 225 126 228 38
714 231 111 109 110
715 221 63 222 61
716 234 135 82 128
717 234 80 78 88
718 226 178 89 39
719 234 77 78 75
720 229 59 224 11
721 167 238 32 55
722 56 241 10 199
723 229 169 224 120
724 232 85 230 125
725 221 67 63 171
726 221 70 200 164
727 222 160 68 71
728 239 197 3 1
729 230 47 175 194
730 222 65 64 63
731 227 57 138 195
732 222 72 174 64
733 97 235 233 101
734 225 172 228 106
735 225 99 98 105
736 229 168 169 177
737 223 112 231 111
738 225 95 96 126
739 230 161 235 21
740 225 94 96 95
741 228 231 130 147
742 223 12 224 52
743 224 122 117 120
744 231 130 154 129
745 88 47 180 232
746 223 150 52 210
747 226 39 89 25
748 224 52 137 202
749 221 67 171 185
750 226 46 234 182
751 228 155 123 206
752 233 91 90 151
753 221 68 67 69
754 232 230 84 194
755 153 104 235 192
756 224 202 137 119
757 223 231 112 132
758 207 231 121 223
759 231 129 131 14
760 225 98 96 94
761 59 236 165 198
762 235 141 142 191
763 226 76 73 135
764 221 27 222 134
765 227 242 57 195
766 229 53 177 201
767 8 242 9 57
768 230 87 235 133
769 221 63 62 171
770 232 125 230 193
771 56 241 199 168
772 232 88 234 180
773 234 181 190 44
774 233 102 209 124
775 234 182 180 88
776 228 130 231 129
777 228 38 130 129
778 239 29 197 1
779 227 164 221 200
780 220 159 103 162
781 241 10 199 2
782 233 93 91 97
783 30 236 198 165
784 231 129 14 15
785 224 169 56 122
786 31 244 30 165
787 244 217 30 236
788 65 221 68 67
789 226 26 39 25
790 226 181 234 89
791 186 221 222 134
792 226 181 178 76
793 224 115 118 116
794 235 90 37 151
795 222 65 68 160
796 220 205 145 203
797 244 217 236 229
798 234 24 44 23
799 221 69 67 185
800 227 164 200 54
801 221 138 184 62
802 221 43 222 27
803 222 60 61 174
804 221 222 43 61
805 227 243 173 41
806 65 221 67 63
807 223 110 231 121
808 231 14 150 51
809 227 54 200 173
810 228 172 204 123
811 227 58 221 164
812 234 82 135 79
813 225 172 106 105
814 97 235 101 189
815 221 62 184 171
816 221 71 222 68
817 228 148 107 147
818 222 72 64 66
819 235 104 102 101
820 235 20 48 21
821 232 128 234 82
822 231 155 121 110
823 228 206 204 149
824 223 131 231 132
825 228 107 99 106
826 230 175 179 84
827 210 202 223 152
828 223 136 117 176
829 233 19 220 49
830 225 105 146 172
831 224 11 127 56
832 227 58 164 163
833 246 197 3 239
834 227 28 221 58
835 7 170 237 8
836 227 28 58 29
837 246 213 239 3
838 25 234 24 89
839 149 225 16 50
840 231 109 147 107
841 228 107 231 147
842 30 2 198 236
843 224 115 119 118
844 25 234 89 226
845 235 21 48 140
846 231 131 129 154
847 226 234 76 135
848 232 234 190 44
849 221 70 211 186
850 232 44 193 23
851 235 87 192 189
852 221 27 134 28
853 226 234 181 76
854 235 37 133 151
855 224 166 137 59
856 225 16 157 38
857 223 14 131 13
858 228 99 107 148
859 220 95 225 156
860 235 151 133 189
861 226 74 75 73
862 232 180 234 23
863 234 181 76 128
864 230 193 125 208
865 230 161 21 208
866 230 87 83 153
867 228 204 206 123
868 8 242 237 215
869 228 149 16 15
870 223 117 224 176
871 207 231 223 150
872 224 120 169 122
873 232 85 82 83
874 141 230 235 140
875 235 142 209 191
876 230 194 175 84
877 230 235 140 21
878 227 197 58 163
879 227 58 197 29
880 232 22 193 230
881 230 179 153 84
882 224 176 117 122
883 224 137 166 119
884 226 139 26 25
885 232 80 88 194
886 234 79 75 78
887 232 234 128 190
888 222 42 27 26
889 223 136 176 132
890 241 36 219 2
891 220 49 144 145
892 224 56 127 122
893 228 51 149 15
894 228 38 129 15
895 232 230 85 83
896 220 156 17 18
897 234 180 24 23
898 232 84 80 194
899 221 164 58 211
900 242 212 213 227
901 221 68 69 70
902 246 54 240 4
903 227 242 237 57
904 9 57 242 195
905 9 195 242 1
906 235 90 20 37
907 149 225 50 204
908 223 152 121 210
909 230 133 235 161
910 223 52 13 12
911 229 216 218 217
912 229 177 53 34
913 229 177 169 201
914 233 205 124 196
915 196 220 205 145
916 233 159 220 93
917 220 225 17 156
918 220 144 49 18
919 235 37 20 21
920 235 161 133 37
921 229 59 11 10
922 233 101 100 97
923 240 4 214 246
924 222 66 64 65
925 227 246 240 214
926 226 188 187 77
927 234 190 181 128
928 222 26 27 60
929 229 167 53 183
930 226 26 222 39
931 235 104 179 191
932 225 156 157 17
933 228 108 231 107
934 220 92 156 45
935 234 80 88 232
936 233 220 205 196
937 229 224 56 11
938 230 81 84 153
939 33 229 238 167
940 167 238 33 32
941 236 241 10 229
942 226 182 77 187
943 221 71 68 70
944 153 104 179 235
945 235 179 141 191
946 225 157 95 126
947 223 210 207 150
948 222 61 64 174
949 139 222 42 158
950 199 241 36 168
951 229 166 224 59
952 243 173 41 6
953 243 214 6 212
954 245 177 34 35
955 59 236 198 10
956 245 168 177 35
957 245 36 168 35
958 222 134 27 42
959 31 55 244 165
960 223 14 13 150
961 241 245 36 168
962 223 210 121 207
963 246 213 3 214
964 223 224 202 52
965 226 139 222 26
966 41 237 227 243
967 7 243 41 6
968 229 224 169 56
969 225 157 126 38
970 223 14 231 131
971 235 141 48 142
972 225 157 16 17
973 225 144 50 146
974 223 224 117 114
975 241 219 217 2
976 225 126 96 148
977 54 240 4 5
978 221 134 58 28
979 5 243 6 173
980 221 69 200 70
981 54 240 5 173
982 227 54 173 240
983 4 3 246 163
984 228 172 123 106
985 220 225 95 94
986 235 192 101 189
987 233 205 103 124
988 235 104 209 102
989 235 142 233 209
990 233 100 93 97
991 141 230 140 175
992 230 235 87 153
993 34 219 216 229
994 246 213 214 227
995 229 166 59 165
996 199 36 241 2
997 243 214 212 227
998 227 164 54 163
999 31 32 238 55
1000 97 235 189 151
1001 227 197 239 29
1002 66 160 222 74
1003 221 71 70 186
1004 246 197 239 227
1005 226 174 72 178
1006 220 18 49 19
1007 222 72 66 226
1008 222 27 43 60
1009 222 60 43 61
1010 221 43 27 28
1011 224 120 116 183
1012 225 106 99 105
1013 228 16 38 15
1014 65 221 63 222
1015 222 26 60 39
1016 139 222 26 42
1017 143 233 49 19
1018 4 3 214 246
1019 34 219 229 245
1020 225 146 204 172
1021 219 245 34 35
1022 244 217 229 218
1023 226 39 222 174
1024 222 39 60 174
1025 244 217 218 30
1026 31 55 238 244
1027 143 196 49 233
1028 31 218 30 244
1029 229 238 55 244
1030 206 51 149 228
1031 7 212 243 6
1032 231 150 207 51
1033 243 237 227 212
1034 236 241 217 2
1035 236 241 2 10
1036 236 244 229 165
1037 236 244 165 30
1038 30 2 236 217
1039 7 237 212 215
1040 242 212 227 237
1041 242 212 237 215
1042 237 242 8 57
1043 7 237 215 8
1044 5 243 173 240
1045 226 74 222 188
1046 243 240 227 173
1047 222 160 188 74
1048 229 34 33 216
1049 34 245 229 177
1050 243 237 212 7
1051 242 212 215 213
1052 213 215 242 1
1053 239 242 213 227
1054 33 229 218 238
1055 238 218 33 32
1056 213 239 3 1
1057 239 195 227 29
1058 246 197 227 163
1059 239 195 29 1
1060 246 197 163 3
1061 246 54 4 163
1062 246 54 163 227
1063 240 214 4 5
1064 239 242 1 213
1065 229 217 241 219
1066 229 245 241 168
$EndElements
